<mxfile host="app.diagrams.net" agent="Mozilla/5.0 (Windows NT 10.0; Win64; x64) AppleWebKit/537.36 (KHTML, like Gecko) Chrome/133.0.0.0 Safari/537.36 OPR/118.0.0.0" version="26.2.14">
  <diagram name="Page-1" id="EaFwHyRmeogTxYNk2_WM">
    <mxGraphModel dx="1385" dy="764" grid="1" gridSize="10" guides="1" tooltips="1" connect="1" arrows="1" fold="1" page="1" pageScale="1" pageWidth="850" pageHeight="1100" math="0" shadow="0">
      <root>
        <mxCell id="0" />
        <mxCell id="1" parent="0" />
        <mxCell id="rBmrRSUvkRp5XXALFVze-1" value="1,2,3" style="ellipse;whiteSpace=wrap;html=1;aspect=fixed;" vertex="1" parent="1">
          <mxGeometry x="480" y="30" width="50" height="50" as="geometry" />
        </mxCell>
        <mxCell id="rBmrRSUvkRp5XXALFVze-11" value="16" style="ellipse;whiteSpace=wrap;html=1;aspect=fixed;" vertex="1" parent="1">
          <mxGeometry x="480" y="390" width="50" height="50" as="geometry" />
        </mxCell>
        <mxCell id="rBmrRSUvkRp5XXALFVze-12" value="12" style="ellipse;whiteSpace=wrap;html=1;aspect=fixed;" vertex="1" parent="1">
          <mxGeometry x="480" y="290" width="50" height="50" as="geometry" />
        </mxCell>
        <mxCell id="rBmrRSUvkRp5XXALFVze-13" value="8" style="ellipse;whiteSpace=wrap;html=1;aspect=fixed;" vertex="1" parent="1">
          <mxGeometry x="480" y="200" width="50" height="50" as="geometry" />
        </mxCell>
        <mxCell id="rBmrRSUvkRp5XXALFVze-14" value="4" style="ellipse;whiteSpace=wrap;html=1;aspect=fixed;" vertex="1" parent="1">
          <mxGeometry x="480" y="110" width="50" height="50" as="geometry" />
        </mxCell>
        <mxCell id="rBmrRSUvkRp5XXALFVze-30" value="17,18,19, 20" style="ellipse;whiteSpace=wrap;html=1;aspect=fixed;" vertex="1" parent="1">
          <mxGeometry x="400" y="440" width="50" height="50" as="geometry" />
        </mxCell>
        <mxCell id="rBmrRSUvkRp5XXALFVze-31" value="13,14,15" style="ellipse;whiteSpace=wrap;html=1;aspect=fixed;" vertex="1" parent="1">
          <mxGeometry x="400" y="350" width="50" height="50" as="geometry" />
        </mxCell>
        <mxCell id="rBmrRSUvkRp5XXALFVze-32" value="9,10,11" style="ellipse;whiteSpace=wrap;html=1;aspect=fixed;" vertex="1" parent="1">
          <mxGeometry x="400" y="270" width="50" height="50" as="geometry" />
        </mxCell>
        <mxCell id="rBmrRSUvkRp5XXALFVze-33" value="5,6,7" style="ellipse;whiteSpace=wrap;html=1;aspect=fixed;" vertex="1" parent="1">
          <mxGeometry x="400" y="170" width="50" height="50" as="geometry" />
        </mxCell>
        <mxCell id="rBmrRSUvkRp5XXALFVze-37" value="21" style="ellipse;whiteSpace=wrap;html=1;aspect=fixed;" vertex="1" parent="1">
          <mxGeometry x="480" y="490" width="50" height="50" as="geometry" />
        </mxCell>
        <mxCell id="rBmrRSUvkRp5XXALFVze-40" value="22" style="ellipse;whiteSpace=wrap;html=1;aspect=fixed;" vertex="1" parent="1">
          <mxGeometry x="480" y="560" width="50" height="50" as="geometry" />
        </mxCell>
        <mxCell id="rBmrRSUvkRp5XXALFVze-41" value="24" style="ellipse;whiteSpace=wrap;html=1;aspect=fixed;" vertex="1" parent="1">
          <mxGeometry x="480" y="630" width="50" height="50" as="geometry" />
        </mxCell>
        <mxCell id="rBmrRSUvkRp5XXALFVze-42" value="23" style="ellipse;whiteSpace=wrap;html=1;aspect=fixed;" vertex="1" parent="1">
          <mxGeometry x="480" y="720" width="50" height="50" as="geometry" />
        </mxCell>
        <mxCell id="rBmrRSUvkRp5XXALFVze-43" value="25" style="ellipse;whiteSpace=wrap;html=1;aspect=fixed;" vertex="1" parent="1">
          <mxGeometry x="430" y="670" width="50" height="50" as="geometry" />
        </mxCell>
        <mxCell id="rBmrRSUvkRp5XXALFVze-44" value="" style="curved=1;endArrow=classic;html=1;rounded=0;exitX=1;exitY=0.5;exitDx=0;exitDy=0;entryX=1;entryY=0.5;entryDx=0;entryDy=0;" edge="1" parent="1" source="rBmrRSUvkRp5XXALFVze-42" target="rBmrRSUvkRp5XXALFVze-41">
          <mxGeometry width="50" height="50" relative="1" as="geometry">
            <mxPoint x="560" y="750" as="sourcePoint" />
            <mxPoint x="610" y="700" as="targetPoint" />
            <Array as="points">
              <mxPoint x="570" y="730" />
              <mxPoint x="580" y="680" />
            </Array>
          </mxGeometry>
        </mxCell>
        <mxCell id="rBmrRSUvkRp5XXALFVze-45" value="26" style="ellipse;whiteSpace=wrap;html=1;aspect=fixed;" vertex="1" parent="1">
          <mxGeometry x="400" y="790" width="50" height="50" as="geometry" />
        </mxCell>
        <mxCell id="rBmrRSUvkRp5XXALFVze-46" value="29" style="ellipse;whiteSpace=wrap;html=1;aspect=fixed;" vertex="1" parent="1">
          <mxGeometry x="480" y="790" width="50" height="50" as="geometry" />
        </mxCell>
        <mxCell id="rBmrRSUvkRp5XXALFVze-47" value="32" style="ellipse;whiteSpace=wrap;html=1;aspect=fixed;" vertex="1" parent="1">
          <mxGeometry x="560" y="790" width="50" height="50" as="geometry" />
        </mxCell>
        <mxCell id="rBmrRSUvkRp5XXALFVze-48" value="27,28" style="ellipse;whiteSpace=wrap;html=1;aspect=fixed;" vertex="1" parent="1">
          <mxGeometry x="400" y="860" width="50" height="50" as="geometry" />
        </mxCell>
        <mxCell id="rBmrRSUvkRp5XXALFVze-49" value="30,31" style="ellipse;whiteSpace=wrap;html=1;aspect=fixed;" vertex="1" parent="1">
          <mxGeometry x="480" y="860" width="50" height="50" as="geometry" />
        </mxCell>
        <mxCell id="rBmrRSUvkRp5XXALFVze-50" value="33,34" style="ellipse;whiteSpace=wrap;html=1;aspect=fixed;" vertex="1" parent="1">
          <mxGeometry x="560" y="860" width="50" height="50" as="geometry" />
        </mxCell>
        <mxCell id="rBmrRSUvkRp5XXALFVze-51" value="35" style="ellipse;whiteSpace=wrap;html=1;aspect=fixed;" vertex="1" parent="1">
          <mxGeometry x="190" y="980" width="50" height="50" as="geometry" />
        </mxCell>
        <mxCell id="rBmrRSUvkRp5XXALFVze-52" value="38" style="ellipse;whiteSpace=wrap;html=1;aspect=fixed;" vertex="1" parent="1">
          <mxGeometry x="280" y="980" width="50" height="50" as="geometry" />
        </mxCell>
        <mxCell id="rBmrRSUvkRp5XXALFVze-53" value="39,40" style="ellipse;whiteSpace=wrap;html=1;aspect=fixed;" vertex="1" parent="1">
          <mxGeometry x="280" y="1110" width="50" height="50" as="geometry" />
        </mxCell>
        <mxCell id="rBmrRSUvkRp5XXALFVze-54" value="36,37" style="ellipse;whiteSpace=wrap;html=1;aspect=fixed;" vertex="1" parent="1">
          <mxGeometry x="190" y="1110" width="50" height="50" as="geometry" />
        </mxCell>
        <mxCell id="rBmrRSUvkRp5XXALFVze-55" value="41,42" style="ellipse;whiteSpace=wrap;html=1;aspect=fixed;" vertex="1" parent="1">
          <mxGeometry x="440" y="1180" width="50" height="50" as="geometry" />
        </mxCell>
        <mxCell id="rBmrRSUvkRp5XXALFVze-56" value="" style="endArrow=classic;html=1;rounded=0;exitX=0.5;exitY=1;exitDx=0;exitDy=0;" edge="1" parent="1" source="rBmrRSUvkRp5XXALFVze-1" target="rBmrRSUvkRp5XXALFVze-14">
          <mxGeometry width="50" height="50" relative="1" as="geometry">
            <mxPoint x="230" y="170" as="sourcePoint" />
            <mxPoint x="230" y="220" as="targetPoint" />
          </mxGeometry>
        </mxCell>
        <mxCell id="rBmrRSUvkRp5XXALFVze-57" value="" style="endArrow=classic;html=1;rounded=0;exitX=0.5;exitY=1;exitDx=0;exitDy=0;entryX=1;entryY=0;entryDx=0;entryDy=0;" edge="1" parent="1" source="rBmrRSUvkRp5XXALFVze-14" target="rBmrRSUvkRp5XXALFVze-33">
          <mxGeometry width="50" height="50" relative="1" as="geometry">
            <mxPoint x="240" y="180" as="sourcePoint" />
            <mxPoint x="240" y="230" as="targetPoint" />
          </mxGeometry>
        </mxCell>
        <mxCell id="rBmrRSUvkRp5XXALFVze-58" value="" style="endArrow=classic;html=1;rounded=0;exitX=0.5;exitY=1;exitDx=0;exitDy=0;entryX=0.5;entryY=0;entryDx=0;entryDy=0;" edge="1" parent="1" source="rBmrRSUvkRp5XXALFVze-14" target="rBmrRSUvkRp5XXALFVze-13">
          <mxGeometry width="50" height="50" relative="1" as="geometry">
            <mxPoint x="90" y="230" as="sourcePoint" />
            <mxPoint x="90" y="280" as="targetPoint" />
          </mxGeometry>
        </mxCell>
        <mxCell id="rBmrRSUvkRp5XXALFVze-59" value="" style="endArrow=classic;html=1;rounded=0;exitX=1;exitY=1;exitDx=0;exitDy=0;entryX=0;entryY=0.5;entryDx=0;entryDy=0;" edge="1" parent="1" source="rBmrRSUvkRp5XXALFVze-33" target="rBmrRSUvkRp5XXALFVze-13">
          <mxGeometry width="50" height="50" relative="1" as="geometry">
            <mxPoint x="90" y="270" as="sourcePoint" />
            <mxPoint x="90" y="320" as="targetPoint" />
          </mxGeometry>
        </mxCell>
        <mxCell id="rBmrRSUvkRp5XXALFVze-60" value="" style="endArrow=classic;html=1;rounded=0;exitX=0.5;exitY=1;exitDx=0;exitDy=0;entryX=1;entryY=0;entryDx=0;entryDy=0;" edge="1" parent="1" source="rBmrRSUvkRp5XXALFVze-13" target="rBmrRSUvkRp5XXALFVze-32">
          <mxGeometry width="50" height="50" relative="1" as="geometry">
            <mxPoint x="130" y="290" as="sourcePoint" />
            <mxPoint x="130" y="340" as="targetPoint" />
          </mxGeometry>
        </mxCell>
        <mxCell id="rBmrRSUvkRp5XXALFVze-61" value="" style="endArrow=classic;html=1;rounded=0;exitX=0.5;exitY=1;exitDx=0;exitDy=0;entryX=0.5;entryY=0;entryDx=0;entryDy=0;" edge="1" parent="1" source="rBmrRSUvkRp5XXALFVze-13" target="rBmrRSUvkRp5XXALFVze-12">
          <mxGeometry width="50" height="50" relative="1" as="geometry">
            <mxPoint x="220" y="310" as="sourcePoint" />
            <mxPoint x="220" y="360" as="targetPoint" />
          </mxGeometry>
        </mxCell>
        <mxCell id="rBmrRSUvkRp5XXALFVze-62" value="" style="endArrow=classic;html=1;rounded=0;exitX=1;exitY=1;exitDx=0;exitDy=0;entryX=0;entryY=0.5;entryDx=0;entryDy=0;" edge="1" parent="1" source="rBmrRSUvkRp5XXALFVze-32" target="rBmrRSUvkRp5XXALFVze-12">
          <mxGeometry width="50" height="50" relative="1" as="geometry">
            <mxPoint x="260" y="300" as="sourcePoint" />
            <mxPoint x="260" y="350" as="targetPoint" />
          </mxGeometry>
        </mxCell>
        <mxCell id="rBmrRSUvkRp5XXALFVze-63" value="" style="endArrow=classic;html=1;rounded=0;exitX=0.5;exitY=1;exitDx=0;exitDy=0;entryX=1;entryY=0;entryDx=0;entryDy=0;" edge="1" parent="1" source="rBmrRSUvkRp5XXALFVze-12" target="rBmrRSUvkRp5XXALFVze-31">
          <mxGeometry width="50" height="50" relative="1" as="geometry">
            <mxPoint x="210" y="340" as="sourcePoint" />
            <mxPoint x="210" y="390" as="targetPoint" />
          </mxGeometry>
        </mxCell>
        <mxCell id="rBmrRSUvkRp5XXALFVze-64" value="" style="endArrow=classic;html=1;rounded=0;exitX=0.5;exitY=1;exitDx=0;exitDy=0;entryX=0.5;entryY=0;entryDx=0;entryDy=0;" edge="1" parent="1" source="rBmrRSUvkRp5XXALFVze-12" target="rBmrRSUvkRp5XXALFVze-11">
          <mxGeometry width="50" height="50" relative="1" as="geometry">
            <mxPoint x="220" y="390" as="sourcePoint" />
            <mxPoint x="220" y="440" as="targetPoint" />
          </mxGeometry>
        </mxCell>
        <mxCell id="rBmrRSUvkRp5XXALFVze-65" value="" style="endArrow=classic;html=1;rounded=0;exitX=1;exitY=1;exitDx=0;exitDy=0;entryX=0;entryY=0.5;entryDx=0;entryDy=0;" edge="1" parent="1" source="rBmrRSUvkRp5XXALFVze-31" target="rBmrRSUvkRp5XXALFVze-11">
          <mxGeometry width="50" height="50" relative="1" as="geometry">
            <mxPoint x="140" y="390" as="sourcePoint" />
            <mxPoint x="140" y="440" as="targetPoint" />
          </mxGeometry>
        </mxCell>
        <mxCell id="rBmrRSUvkRp5XXALFVze-66" value="" style="endArrow=classic;html=1;rounded=0;exitX=0.5;exitY=1;exitDx=0;exitDy=0;entryX=1;entryY=0;entryDx=0;entryDy=0;" edge="1" parent="1" source="rBmrRSUvkRp5XXALFVze-11" target="rBmrRSUvkRp5XXALFVze-30">
          <mxGeometry width="50" height="50" relative="1" as="geometry">
            <mxPoint x="170" y="430" as="sourcePoint" />
            <mxPoint x="170" y="480" as="targetPoint" />
          </mxGeometry>
        </mxCell>
        <mxCell id="rBmrRSUvkRp5XXALFVze-67" value="" style="endArrow=classic;html=1;rounded=0;exitX=0.5;exitY=1;exitDx=0;exitDy=0;entryX=0.5;entryY=0;entryDx=0;entryDy=0;" edge="1" parent="1" source="rBmrRSUvkRp5XXALFVze-11" target="rBmrRSUvkRp5XXALFVze-37">
          <mxGeometry width="50" height="50" relative="1" as="geometry">
            <mxPoint x="170" y="460" as="sourcePoint" />
            <mxPoint x="170" y="510" as="targetPoint" />
          </mxGeometry>
        </mxCell>
        <mxCell id="rBmrRSUvkRp5XXALFVze-68" value="" style="endArrow=classic;html=1;rounded=0;exitX=1;exitY=1;exitDx=0;exitDy=0;entryX=0.06;entryY=0.66;entryDx=0;entryDy=0;entryPerimeter=0;" edge="1" parent="1" source="rBmrRSUvkRp5XXALFVze-30" target="rBmrRSUvkRp5XXALFVze-37">
          <mxGeometry width="50" height="50" relative="1" as="geometry">
            <mxPoint x="140" y="510" as="sourcePoint" />
            <mxPoint x="140" y="560" as="targetPoint" />
          </mxGeometry>
        </mxCell>
        <mxCell id="rBmrRSUvkRp5XXALFVze-69" value="" style="endArrow=classic;html=1;rounded=0;exitX=0.5;exitY=1;exitDx=0;exitDy=0;entryX=0.5;entryY=0;entryDx=0;entryDy=0;" edge="1" parent="1" source="rBmrRSUvkRp5XXALFVze-37" target="rBmrRSUvkRp5XXALFVze-40">
          <mxGeometry width="50" height="50" relative="1" as="geometry">
            <mxPoint x="230" y="570" as="sourcePoint" />
            <mxPoint x="230" y="620" as="targetPoint" />
          </mxGeometry>
        </mxCell>
        <mxCell id="rBmrRSUvkRp5XXALFVze-70" value="" style="endArrow=classic;html=1;rounded=0;exitX=0;exitY=1;exitDx=0;exitDy=0;entryX=0.5;entryY=0;entryDx=0;entryDy=0;" edge="1" parent="1" source="rBmrRSUvkRp5XXALFVze-37" target="rBmrRSUvkRp5XXALFVze-51">
          <mxGeometry width="50" height="50" relative="1" as="geometry">
            <mxPoint x="190" y="560" as="sourcePoint" />
            <mxPoint x="190" y="610" as="targetPoint" />
          </mxGeometry>
        </mxCell>
        <mxCell id="rBmrRSUvkRp5XXALFVze-71" value="" style="endArrow=classic;html=1;rounded=0;exitX=0;exitY=1;exitDx=0;exitDy=0;entryX=0.5;entryY=0;entryDx=0;entryDy=0;" edge="1" parent="1" source="rBmrRSUvkRp5XXALFVze-37" target="rBmrRSUvkRp5XXALFVze-52">
          <mxGeometry width="50" height="50" relative="1" as="geometry">
            <mxPoint x="180" y="630" as="sourcePoint" />
            <mxPoint x="180" y="680" as="targetPoint" />
          </mxGeometry>
        </mxCell>
        <mxCell id="rBmrRSUvkRp5XXALFVze-72" value="" style="endArrow=classic;html=1;rounded=0;exitX=0.5;exitY=1;exitDx=0;exitDy=0;entryX=0.5;entryY=0;entryDx=0;entryDy=0;" edge="1" parent="1" source="rBmrRSUvkRp5XXALFVze-40" target="rBmrRSUvkRp5XXALFVze-41">
          <mxGeometry width="50" height="50" relative="1" as="geometry">
            <mxPoint x="720" y="640" as="sourcePoint" />
            <mxPoint x="720" y="690" as="targetPoint" />
          </mxGeometry>
        </mxCell>
        <mxCell id="rBmrRSUvkRp5XXALFVze-73" value="" style="endArrow=classic;html=1;rounded=0;exitX=0;exitY=1;exitDx=0;exitDy=0;entryX=1;entryY=0;entryDx=0;entryDy=0;" edge="1" parent="1" source="rBmrRSUvkRp5XXALFVze-41" target="rBmrRSUvkRp5XXALFVze-43">
          <mxGeometry width="50" height="50" relative="1" as="geometry">
            <mxPoint x="770" y="730" as="sourcePoint" />
            <mxPoint x="770" y="780" as="targetPoint" />
          </mxGeometry>
        </mxCell>
        <mxCell id="rBmrRSUvkRp5XXALFVze-74" value="" style="endArrow=classic;html=1;rounded=0;exitX=1;exitY=1;exitDx=0;exitDy=0;entryX=0;entryY=0;entryDx=0;entryDy=0;" edge="1" parent="1" source="rBmrRSUvkRp5XXALFVze-43" target="rBmrRSUvkRp5XXALFVze-42">
          <mxGeometry width="50" height="50" relative="1" as="geometry">
            <mxPoint x="780" y="750" as="sourcePoint" />
            <mxPoint x="780" y="800" as="targetPoint" />
          </mxGeometry>
        </mxCell>
        <mxCell id="rBmrRSUvkRp5XXALFVze-75" value="" style="endArrow=classic;html=1;rounded=0;exitX=0;exitY=1;exitDx=0;exitDy=0;entryX=1;entryY=0;entryDx=0;entryDy=0;" edge="1" parent="1" source="rBmrRSUvkRp5XXALFVze-42" target="rBmrRSUvkRp5XXALFVze-45">
          <mxGeometry width="50" height="50" relative="1" as="geometry">
            <mxPoint x="810" y="770" as="sourcePoint" />
            <mxPoint x="810" y="820" as="targetPoint" />
          </mxGeometry>
        </mxCell>
        <mxCell id="rBmrRSUvkRp5XXALFVze-76" value="" style="endArrow=classic;html=1;rounded=0;exitX=0.5;exitY=1;exitDx=0;exitDy=0;entryX=0.5;entryY=0;entryDx=0;entryDy=0;" edge="1" parent="1" source="rBmrRSUvkRp5XXALFVze-42" target="rBmrRSUvkRp5XXALFVze-46">
          <mxGeometry width="50" height="50" relative="1" as="geometry">
            <mxPoint x="820" y="760" as="sourcePoint" />
            <mxPoint x="820" y="810" as="targetPoint" />
          </mxGeometry>
        </mxCell>
        <mxCell id="rBmrRSUvkRp5XXALFVze-77" value="" style="endArrow=classic;html=1;rounded=0;exitX=1;exitY=1;exitDx=0;exitDy=0;entryX=0.5;entryY=0;entryDx=0;entryDy=0;" edge="1" parent="1" source="rBmrRSUvkRp5XXALFVze-42" target="rBmrRSUvkRp5XXALFVze-47">
          <mxGeometry width="50" height="50" relative="1" as="geometry">
            <mxPoint x="780" y="730" as="sourcePoint" />
            <mxPoint x="780" y="780" as="targetPoint" />
          </mxGeometry>
        </mxCell>
        <mxCell id="rBmrRSUvkRp5XXALFVze-78" value="" style="endArrow=classic;html=1;rounded=0;exitX=0.5;exitY=1;exitDx=0;exitDy=0;entryX=0.5;entryY=0;entryDx=0;entryDy=0;" edge="1" parent="1" source="rBmrRSUvkRp5XXALFVze-45" target="rBmrRSUvkRp5XXALFVze-48">
          <mxGeometry width="50" height="50" relative="1" as="geometry">
            <mxPoint x="780" y="840" as="sourcePoint" />
            <mxPoint x="780" y="890" as="targetPoint" />
          </mxGeometry>
        </mxCell>
        <mxCell id="rBmrRSUvkRp5XXALFVze-79" value="" style="endArrow=classic;html=1;rounded=0;exitX=0.5;exitY=1;exitDx=0;exitDy=0;entryX=0.5;entryY=0;entryDx=0;entryDy=0;" edge="1" parent="1" source="rBmrRSUvkRp5XXALFVze-46" target="rBmrRSUvkRp5XXALFVze-49">
          <mxGeometry width="50" height="50" relative="1" as="geometry">
            <mxPoint x="700" y="840" as="sourcePoint" />
            <mxPoint x="700" y="890" as="targetPoint" />
          </mxGeometry>
        </mxCell>
        <mxCell id="rBmrRSUvkRp5XXALFVze-80" value="" style="endArrow=classic;html=1;rounded=0;exitX=0.5;exitY=1;exitDx=0;exitDy=0;entryX=0.5;entryY=0;entryDx=0;entryDy=0;" edge="1" parent="1" source="rBmrRSUvkRp5XXALFVze-47" target="rBmrRSUvkRp5XXALFVze-50">
          <mxGeometry width="50" height="50" relative="1" as="geometry">
            <mxPoint x="740" y="880" as="sourcePoint" />
            <mxPoint x="740" y="930" as="targetPoint" />
          </mxGeometry>
        </mxCell>
        <mxCell id="rBmrRSUvkRp5XXALFVze-81" value="" style="endArrow=classic;html=1;rounded=0;exitX=0.5;exitY=1;exitDx=0;exitDy=0;entryX=0.5;entryY=0;entryDx=0;entryDy=0;" edge="1" parent="1" source="rBmrRSUvkRp5XXALFVze-48" target="rBmrRSUvkRp5XXALFVze-51">
          <mxGeometry width="50" height="50" relative="1" as="geometry">
            <mxPoint x="580" y="1010" as="sourcePoint" />
            <mxPoint x="580" y="1060" as="targetPoint" />
          </mxGeometry>
        </mxCell>
        <mxCell id="rBmrRSUvkRp5XXALFVze-82" value="" style="endArrow=classic;html=1;rounded=0;exitX=0.5;exitY=1;exitDx=0;exitDy=0;entryX=0.5;entryY=0;entryDx=0;entryDy=0;" edge="1" parent="1" source="rBmrRSUvkRp5XXALFVze-49" target="rBmrRSUvkRp5XXALFVze-51">
          <mxGeometry width="50" height="50" relative="1" as="geometry">
            <mxPoint x="720" y="980" as="sourcePoint" />
            <mxPoint x="720" y="1030" as="targetPoint" />
          </mxGeometry>
        </mxCell>
        <mxCell id="rBmrRSUvkRp5XXALFVze-83" value="" style="endArrow=classic;html=1;rounded=0;exitX=0.5;exitY=1;exitDx=0;exitDy=0;entryX=0.5;entryY=0;entryDx=0;entryDy=0;" edge="1" parent="1" source="rBmrRSUvkRp5XXALFVze-50" target="rBmrRSUvkRp5XXALFVze-51">
          <mxGeometry width="50" height="50" relative="1" as="geometry">
            <mxPoint x="790" y="1020" as="sourcePoint" />
            <mxPoint x="790" y="1070" as="targetPoint" />
          </mxGeometry>
        </mxCell>
        <mxCell id="rBmrRSUvkRp5XXALFVze-84" value="" style="endArrow=classic;html=1;rounded=0;exitX=0.5;exitY=1;exitDx=0;exitDy=0;entryX=0.5;entryY=0;entryDx=0;entryDy=0;" edge="1" parent="1" source="rBmrRSUvkRp5XXALFVze-48" target="rBmrRSUvkRp5XXALFVze-52">
          <mxGeometry width="50" height="50" relative="1" as="geometry">
            <mxPoint x="660" y="1000" as="sourcePoint" />
            <mxPoint x="660" y="1050" as="targetPoint" />
          </mxGeometry>
        </mxCell>
        <mxCell id="rBmrRSUvkRp5XXALFVze-85" value="" style="endArrow=classic;html=1;rounded=0;exitX=0.5;exitY=1;exitDx=0;exitDy=0;entryX=0.5;entryY=0;entryDx=0;entryDy=0;" edge="1" parent="1" source="rBmrRSUvkRp5XXALFVze-49" target="rBmrRSUvkRp5XXALFVze-52">
          <mxGeometry width="50" height="50" relative="1" as="geometry">
            <mxPoint x="660" y="1000" as="sourcePoint" />
            <mxPoint x="660" y="1050" as="targetPoint" />
          </mxGeometry>
        </mxCell>
        <mxCell id="rBmrRSUvkRp5XXALFVze-86" value="" style="endArrow=classic;html=1;rounded=0;exitX=0.5;exitY=1;exitDx=0;exitDy=0;entryX=0.5;entryY=0;entryDx=0;entryDy=0;" edge="1" parent="1" source="rBmrRSUvkRp5XXALFVze-50" target="rBmrRSUvkRp5XXALFVze-52">
          <mxGeometry width="50" height="50" relative="1" as="geometry">
            <mxPoint x="630" y="990" as="sourcePoint" />
            <mxPoint x="630" y="1040" as="targetPoint" />
          </mxGeometry>
        </mxCell>
        <mxCell id="rBmrRSUvkRp5XXALFVze-87" value="" style="endArrow=classic;html=1;rounded=0;exitX=0.5;exitY=1;exitDx=0;exitDy=0;entryX=0.5;entryY=0;entryDx=0;entryDy=0;" edge="1" parent="1" source="rBmrRSUvkRp5XXALFVze-51" target="rBmrRSUvkRp5XXALFVze-54">
          <mxGeometry width="50" height="50" relative="1" as="geometry">
            <mxPoint x="520" y="1040" as="sourcePoint" />
            <mxPoint x="520" y="1090" as="targetPoint" />
          </mxGeometry>
        </mxCell>
        <mxCell id="rBmrRSUvkRp5XXALFVze-88" value="" style="endArrow=classic;html=1;rounded=0;exitX=0.5;exitY=1;exitDx=0;exitDy=0;entryX=0.5;entryY=0;entryDx=0;entryDy=0;" edge="1" parent="1" source="rBmrRSUvkRp5XXALFVze-52" target="rBmrRSUvkRp5XXALFVze-53">
          <mxGeometry width="50" height="50" relative="1" as="geometry">
            <mxPoint x="580" y="1060" as="sourcePoint" />
            <mxPoint x="580" y="1110" as="targetPoint" />
          </mxGeometry>
        </mxCell>
        <mxCell id="rBmrRSUvkRp5XXALFVze-89" value="" style="endArrow=classic;html=1;rounded=0;exitX=0.5;exitY=1;exitDx=0;exitDy=0;entryX=0.5;entryY=0;entryDx=0;entryDy=0;" edge="1" parent="1" source="rBmrRSUvkRp5XXALFVze-51" target="rBmrRSUvkRp5XXALFVze-55">
          <mxGeometry width="50" height="50" relative="1" as="geometry">
            <mxPoint x="600" y="1090" as="sourcePoint" />
            <mxPoint x="600" y="1140" as="targetPoint" />
          </mxGeometry>
        </mxCell>
        <mxCell id="rBmrRSUvkRp5XXALFVze-90" value="" style="endArrow=classic;html=1;rounded=0;entryX=0.5;entryY=0;entryDx=0;entryDy=0;" edge="1" parent="1" target="rBmrRSUvkRp5XXALFVze-55">
          <mxGeometry width="50" height="50" relative="1" as="geometry">
            <mxPoint x="305" y="1030" as="sourcePoint" />
            <mxPoint x="560" y="1120" as="targetPoint" />
          </mxGeometry>
        </mxCell>
        <mxCell id="rBmrRSUvkRp5XXALFVze-91" value="" style="endArrow=classic;html=1;rounded=0;exitX=0.5;exitY=1;exitDx=0;exitDy=0;entryX=0;entryY=0.5;entryDx=0;entryDy=0;" edge="1" parent="1" source="rBmrRSUvkRp5XXALFVze-54" target="rBmrRSUvkRp5XXALFVze-55">
          <mxGeometry width="50" height="50" relative="1" as="geometry">
            <mxPoint x="240" y="1190" as="sourcePoint" />
            <mxPoint x="240" y="1240" as="targetPoint" />
          </mxGeometry>
        </mxCell>
        <mxCell id="rBmrRSUvkRp5XXALFVze-92" value="" style="endArrow=classic;html=1;rounded=0;exitX=0.5;exitY=1;exitDx=0;exitDy=0;entryX=0;entryY=0.5;entryDx=0;entryDy=0;" edge="1" parent="1" source="rBmrRSUvkRp5XXALFVze-53" target="rBmrRSUvkRp5XXALFVze-55">
          <mxGeometry width="50" height="50" relative="1" as="geometry">
            <mxPoint x="350" y="1270" as="sourcePoint" />
            <mxPoint x="350" y="1320" as="targetPoint" />
          </mxGeometry>
        </mxCell>
      </root>
    </mxGraphModel>
  </diagram>
</mxfile>
